<svg xmlns="http://www.w3.org/2000/svg" viewBox="0 0 200 41.3"><path d="M97.6 0H62.3c-8.2 0-11.8 5.1-12.6 10V0H30.2c-2.7 0-4.1.8-5.4 2.7l-5.4 7.8h78.2V0zM0 41.3h14l17.6-28.4-12.5-1.3zM99.7 0h11.6v10.6H99.7zM184.7 16.5l-36.2-2.1c0 5.5 3.6 9.3 9.8 9.8l25.8 2c2 .2 3.2.7 3.2 2.3s-1.4 2.1-4.3 2.1h-35.1v10.7h35.8c11.3 0 16.3-4 16.3-13 0-8.1-4.5-11.1-15.3-11.8"/><path d="M148 14.4l-11.4-.7v12.1c0 3.8-1.9 4.9-8.5 4.9H119c-5.4 0-7.8-1.6-7.8-4.9V12.6l-11.6-.8v15.1h-.2c-.7-4.4-2.3-9.5-13.3-10.2L50 14.2c0 5.5 4 8.8 10.2 9.5l25.2 2.5c2 .2 3.5.7 3.5 2.4 0 1.8-1.5 2-3.8 2H49.6V14.1L38 13.4v27.9h47.1c10.5 0 13.9-5.4 14.4-10h.2c1.3 7.2 7.6 10 18.2 10h11.7c12.5 0 18.3-3.8 18.3-12.7V14.4zM199.2 10.6V0h-38.8c-8.1 0-11.7 5-12.4 9.8v.2V0h-11.4v10.6h62.6z"/></svg>