<svg xmlns="http://www.w3.org/2000/svg" viewBox="0 0 200 60.6"><path d="M90.6 57.7c3.5-2 6.2-4.7 8.2-8.3 2-3.5 3-7.2 3-10.9s-1-7.4-3-10.9-4.7-6.3-8.2-8.3c-3.5-2-7.1-3-10.9-3-3.3 0-6.5.7-9.4 2.2-2.3 1.1-4.4 2.6-6.3 4.5-1.9 1.9-3.5 4.2-4.6 6.9-1.2 2.7-1.7 5.7-1.7 8.8 0 1.9.3 3.8.8 5.8.5 1.9 1.4 3.8 2.4 5.5 1.1 1.8 2.5 3.5 4.4 5.2 1.9 1.7 4.1 3 6.6 4s5.1 1.4 7.8 1.4c3.8 0 7.5-1 10.9-2.9zM67.3 46c-1.2-2.3-1.9-4.7-1.9-7.3 0-2.7.6-5.3 1.9-7.6 1.3-2.3 3.1-4.1 5.4-5.5 2.3-1.3 4.7-2 7-2s4.6.6 6.9 1.9c2.3 1.3 4.1 3 5.4 5.3 1.3 2.2 2 4.8 2 7.6s-.7 5.3-1.9 7.7c-1.3 2.3-3.1 4.1-5.3 5.4-4.5 2.6-9.5 2.6-14.2-.1-2.3-1.4-4.1-3.2-5.3-5.4zM200 59.2l-1.3-6.7-1.9.7c-.6.2-1.7.4-4.1.4-2.5 0-4.9-.8-4.9-6.6V23.6h10.9v-7h-10.9v-10l-8.3 2.9v7h-8c-9.2 0-16.6 7.3-16.6 16.2v26.6h8.2V33.7c0-5.8 4.1-9.8 9.3-10.1h7v22.5c0 5.5 1 9 3.2 11.2 2 2.3 5.1 3.4 9.2 3.4 2.6 0 4.9-.3 6.6-1l1.6-.5zM58 23.5s3.6-6.5 3.7-6.8c-2.2-.3-4.7-.3-4.7-.3-9.2 0-16.7 7.3-16.7 16.3v26.6h8.2V33.7c-.1-5.8 4.1-10 9.5-10.2zM8.5 33.8h2.8c7.4 0 12.3-.3 15.1-1 3.9-.9 7-2.8 9.2-5.5C37.8 24.5 39 21 39 16.8c0-4.1-1.2-7.7-3.5-10.4-2.3-2.8-5.3-4.6-8.8-5.5-2.5-.6-7-.9-13.8-.9H0v59.4h8.5V33.8zm0-25.4h8.9c3.7 0 6.4.3 8 .9 1.5.6 2.6 1.5 3.5 2.9.9 1.4 1.4 2.9 1.4 4.6 0 1.7-.4 3.3-1.4 4.7-.9 1.4-2.1 2.4-3.7 3-1.7.7-4.4 1-8.2 1l-8.5-.1v-17zM143.1 59.4l8.2.1-24-59.5h-3.1L100 59.4h8.4l7.2-17.6H136l7.1 17.6zM119 33.6l.4-1.1h-.1l6.4-15.7v.1l6.8 16.7H119z"/></svg>