<svg version="1.1" id="Vrstva_1" xmlns="http://www.w3.org/2000/svg" x="0" y="0" viewBox="0 0 269.1 40" xml:space="preserve"><style></style><linearGradient id="SVGID_1_" gradientUnits="userSpaceOnUse" x1="9.976" y1="40.093" x2="9.976" y2="9.352" gradientTransform="matrix(1 0 0 -1 0 40.093)"><stop offset="0" stop-color="#efe4d4"/><stop offset="1" stop-color="#caac85"/></linearGradient><path d="M6 0c.4.1.7.2 1.1.2 2.8.4 5.3 1.6 7.5 3.4 1.7 1.4 3 3.1 3.9 5.1.8 1.6 1.2 3.3 1.4 5 .3 3-.2 5.8-1.6 8.4-1.4 2.7-3.4 4.9-6.1 6.4-1.7 1-3.6 1.7-5.5 1.9-1.6.2-3.2.1-4.9.1H-.1C0 20.5 0 10.3 0 0h6z" fill="url(#SVGID_1_)"/><linearGradient id="SVGID_00000000928839805817543400000011959074957632476802_" gradientUnits="userSpaceOnUse" x1="33.765" y1="40.093" x2="33.765" y2="9.364" gradientTransform="matrix(1 0 0 -1 0 40.093)"><stop offset="0" stop-color="#efe4d4"/><stop offset="1" stop-color="#caac85"/></linearGradient><path d="M43.7 0V30.6c-.1 0-.2.1-.2.1-1.8 0-3.5.1-5.3 0-2.7-.2-5.2-1-7.5-2.5s-4.1-3.5-5.3-6c-.8-1.6-1.3-3.2-1.5-4.9-.3-2.8 0-5.6 1.2-8.2 2.1-4.7 5.8-7.5 10.7-8.7.6-.1 1.1-.2 1.7-.2.1 0 .2-.1.3-.1 2-.1 4-.1 5.9-.1z" fill="url(#SVGID_00000000928839805817543400000011959074957632476802_)"/><linearGradient id="SVGID_00000056406250928740910820000004018593613568310455_" gradientUnits="userSpaceOnUse" x1="66.085" y1="40.102" x2="66.085" y2="9.395" gradientTransform="matrix(1 0 0 -1 0 40.093)"><stop offset="0" stop-color="#efe4d4"/><stop offset="1" stop-color="#caac85"/></linearGradient><path d="M65.4 0c.4.1.7.2 1.1.2 2.6.4 5 1.5 7.1 3.1 1.7 1.4 3.2 3.1 4.2 5.1.8 1.6 1.3 3.2 1.5 4.9.3 2.8 0 5.6-1.2 8.2-2.1 4.7-5.8 7.5-10.7 8.7-1 .3-2.2.3-3.2.3H53v-.7V.5v-.7c4 .2 8.2.2 12.4.2zm-7.8 26H64.5c1.6 0 3-.5 4.4-1.2 1.8-1 3.2-2.3 4.2-4.1 1.4-2.4 1.8-4.9 1.2-7.6-.6-2.6-1.9-4.7-4.1-6.3-1.7-1.3-3.7-2-5.9-2.1h-6.8c.1 7.2.1 14.2.1 21.3z" fill="url(#SVGID_00000056406250928740910820000004018593613568310455_)"/><linearGradient id="SVGID_00000092426306139857113870000001437977460156092293_" gradientUnits="userSpaceOnUse" x1="125.111" y1="40.093" x2="125.111" y2="9.366" gradientTransform="matrix(1 0 0 -1 0 40.093)"><stop offset="0" stop-color="#efe4d4"/><stop offset="1" stop-color="#caac85"/></linearGradient><path d="M119.1 0V11.3c2.6-1.7 5.4-2.3 8.4-1.6 3 .6 5.3 2.3 6.8 4.9 2.4 4 1.8 8.9-.9 12.2-.8 1-1.8 1.9-3 2.5-1.2.6-2.4 1.1-3.7 1.2-1.3.2-2.7.2-3.9-.2-1.2-.4-2.4-.9-3.7-1.4v1.6h-4.6v-.7V.5v-.7c1.5.2 3 .2 4.6.2zm6.1 26.4c3.6 0 6.4-2.9 6.4-6.4 0-3.5-2.7-6.2-6.2-6.3-3.9-.1-6.6 3-6.6 6.4 0 3.4 2.8 6.3 6.4 6.3z" fill="url(#SVGID_00000092426306139857113870000001437977460156092293_)"/><linearGradient id="SVGID_00000087414180803877380690000014818945800995581119_" gradientUnits="userSpaceOnUse" x1="146.749" y1="30.601" x2="146.749" y2=".102" gradientTransform="matrix(1 0 0 -1 0 40.093)"><stop offset="0" stop-color="#efe4d4"/><stop offset="1" stop-color="#caac85"/></linearGradient><path d="M139.3 40l-1.5-.6c-.5-.2-1-.4-1.6-.7.6-1.4 1.3-2.8 1.9-4.2.4.1.7.3 1.1.4 1.1.3 2.3-.2 2.8-1.3.7-1.5 1.4-3 2-4.5.1-.2.1-.4 0-.5-1.2-2.6-2.3-5.3-3.5-7.9-1.6-3.6-3.3-7.3-4.9-11v-.2h4.5c.4 0 .6.1.7.5.6 1.5 1.3 3 2 4.5 1.1 2.4 2.1 4.8 3.2 7.2.2.4.4.8.6 1.3.2-.4.3-.7.4-.9.6-1.4 1.3-2.8 1.9-4.3 1.1-2.5 2.2-4.9 3.3-7.4.4-.9.4-.9 1.3-.9h4.3l-1.5 3.3c-1.2 2.6-2.3 5.2-3.5 7.8-.8 1.8-1.6 3.5-2.4 5.3-1.2 2.6-2.3 5.2-3.5 7.8-.5 1.2-1 2.3-1.6 3.4-.9 1.5-2.2 2.4-3.9 2.8-.1 0-.2.1-.2.1h-1.9z" fill="url(#SVGID_00000087414180803877380690000014818945800995581119_)"/><linearGradient id="SVGID_00000033371642105442247890000004351610151021965740_" gradientUnits="userSpaceOnUse" x1="178.126" y1="40.102" x2="178.126" y2="9.393" gradientTransform="matrix(1 0 0 -1 0 40.093)"><stop offset="0" stop-color="#efe4d4"/><stop offset="1" stop-color="#caac85"/></linearGradient><path d="M167.8 0c.3.9.6 1.8 1 2.7.8 2.2 1.7 4.5 2.5 6.7 1.2 3.2 2.5 6.5 3.7 9.7l2.7 7.2c.1.4.3.7.5 1.2.4-.9.7-1.7.9-2.4 1.1-2.9 2.2-5.9 3.3-8.8 1.3-3.4 2.6-6.8 3.8-10.2.8-2 1.5-4 2.3-6v-.2h2.8L188 8.6c-1.1 2.8-2.2 5.6-3.2 8.4l-2.7 7.2c-.8 2-1.5 4-2.3 6-.1.2-.3.3-.5.3h-2.1c-.3 0-.4-.1-.6-.4-1.7-4.5-3.4-9-5.1-13.4-1.2-3.3-2.4-6.5-3.7-9.8-.9-2.3-1.7-4.5-2.6-6.8 0-.1-.1-.2-.1-.3.9.2 1.8.2 2.7.2z" fill="url(#SVGID_00000033371642105442247890000004351610151021965740_)"/><linearGradient id="SVGID_00000062902218700353758130000015435112855275951499_" gradientUnits="userSpaceOnUse" x1="108.199" y1="40.093" x2="108.199" y2="9.428" gradientTransform="matrix(1 0 0 -1 0 40.093)"><stop offset="0" stop-color="#efe4d4"/><stop offset="1" stop-color="#caac85"/></linearGradient><path d="M110.6 0v30.7h-4.7V30 .7 0h4.7z" fill="url(#SVGID_00000062902218700353758130000015435112855275951499_)"/><linearGradient id="SVGID_00000109009572883359697840000014468530845744469687_" gradientUnits="userSpaceOnUse" x1="260.483" y1="30.607" x2="260.483" y2="9.361" gradientTransform="matrix(1 0 0 -1 0 40.093)"><stop offset="0" stop-color="#efe4d4"/><stop offset="1" stop-color="#caac85"/></linearGradient><path d="M269.1 30.7h-2.4V30 17.8c0-1.4-.3-2.8-1.1-4-.8-1.4-2.1-2.1-3.6-2.2-1.6-.2-3.1.1-4.5 1-1.5 1.1-2.4 2.7-2.8 4.5-.2.9-.3 1.9-.3 2.9V30.8H252v-.6-15.9c0-1.4-.1-2.8-.2-4.2v-.5h2.3c.1 1.4.1 2.8.2 4.3.3-.5.6-1 .9-1.4 1.1-1.4 2.5-2.3 4.1-2.7 2.8-.7 5.4-.4 7.6 1.7 1.2 1.2 1.7 2.8 2 4.4 0 .1.1.2.1.3.1 4.9.1 9.7.1 14.5z" fill="url(#SVGID_00000109009572883359697840000014468530845744469687_)"/><linearGradient id="SVGID_00000031177081022246265020000003169924433017477254_" gradientUnits="userSpaceOnUse" x1="195.822" y1="40.093" x2="195.822" y2="36.403" gradientTransform="matrix(1 0 0 -1 0 40.093)"><stop offset="0" stop-color="#efe4d4"/><stop offset="1" stop-color="#caac85"/></linearGradient><path d="M196.1 0c.4.3.9.6 1.3 1s.3 1.4-.1 2c-.3.5-1.2.8-1.7.7-.8-.2-1.3-.7-1.4-1.4-.2-1.1.2-1.8 1.4-2.1l.1-.1c0-.1.2-.1.4-.1z" fill="url(#SVGID_00000031177081022246265020000003169924433017477254_)"/><linearGradient id="SVGID_00000052803010562871723620000006997251194472624573_" gradientUnits="userSpaceOnUse" x1="221.668" y1="40.093" x2="221.668" y2="36.495" gradientTransform="matrix(1 0 0 -1 0 40.093)"><stop offset="0" stop-color="#efe4d4"/><stop offset="1" stop-color="#caac85"/></linearGradient><path d="M222.1 0c.2.1.4.3.6.4.6.4.9 1.3.6 2-.3.7-.8 1.3-2 1.2-.7-.1-1.3-.6-1.4-1.4-.2-.9.2-1.7 1.1-2 .1 0 .1-.1.1-.1.4-.1.7-.1 1-.1z" fill="url(#SVGID_00000052803010562871723620000006997251194472624573_)"/><linearGradient id="SVGID_00000021805461441888883030000014485938457199919002_" gradientUnits="userSpaceOnUse" x1="92.303" y1="30.676" x2="92.303" y2="9.386" gradientTransform="matrix(1 0 0 -1 0 40.093)"><stop offset="0" stop-color="#efe4d4"/><stop offset="1" stop-color="#caac85"/></linearGradient><path d="M81.7 20c-.1-5.8 4.7-10.6 10.5-10.6 5.9 0 10.9 4.7 10.7 11.2-.2 5.3-4.7 10.4-11.1 10.1-5.3-.2-10.3-4.8-10.1-10.7zm16.9.1c.1-3.5-3-6.3-6.2-6.4-3.6-.1-6.5 2.9-6.5 6.3 0 3.6 2.9 6.3 6.1 6.4 3.7.2 6.8-3 6.6-6.3z" fill="url(#SVGID_00000021805461441888883030000014485938457199919002_)"/><linearGradient id="SVGID_00000156571518541730309750000007024908529389517731_" gradientUnits="userSpaceOnUse" x1="237.353" y1="30.611" x2="237.353" y2="9.286" gradientTransform="matrix(1 0 0 -1 0 40.093)"><stop offset="0" stop-color="#efe4d4"/><stop offset="1" stop-color="#caac85"/></linearGradient><path d="M237.4 30.8c-2.5 0-4.8-.7-6.7-2.3-1.9-1.5-3-3.4-3.6-5.7-.3-1.1-.4-2.3-.3-3.4.2-2.4.9-4.5 2.5-6.4 1.5-1.7 3.3-2.7 5.5-3.2 3.1-.7 6.1-.3 8.9 1.5 2.4 1.5 3.7 3.8 4.2 6.5.4 2.1.3 4.1-.4 6.1-1.2 3.4-3.6 5.6-7.1 6.4-1.1.3-2.1.4-3 .5zm8.1-10.7c-.1-.8-.1-1.6-.3-2.3-.6-2.5-1.9-4.4-4.3-5.5-1.5-.7-3.1-.9-4.8-.7-1.7.2-3.2.8-4.4 2-2.6 2.6-3.1 5.8-2.2 9.2.6 2.3 2.1 4 4.2 5 1.6.7 3.3.8 5 .6 2.1-.3 3.9-1.4 5.1-3.1 1.2-1.5 1.7-3.3 1.7-5.2z" fill="url(#SVGID_00000156571518541730309750000007024908529389517731_)"/><linearGradient id="SVGID_00000125601194600922054820000006783456557263740042_" gradientUnits="userSpaceOnUse" x1="208.313" y1="30.612" x2="208.313" y2="9.377" gradientTransform="matrix(1 0 0 -1 0 40.093)"><stop offset="0" stop-color="#efe4d4"/><stop offset="1" stop-color="#caac85"/></linearGradient><path d="M200.8 27c.7-.5 1.4-1 2-1.4 1 1.3 2.1 2.3 3.7 2.8 1.9.6 3.8.5 5.5-.6 1.5-1 2-3.1 1.1-4.5-.5-.9-1.4-1.3-2.3-1.6-1.7-.6-3.5-1-5.2-1.6-1.6-.6-3-1.4-3.5-3.2-.9-3.1.5-6 3.8-6.9 1.1-.3 2.3-.5 3.5-.4 2 .1 3.8.8 5.2 2.2.1.1.2.3.3.4.6.9.6.9-.3 1.5-.3.2-.6.4-.8.6-.7-.6-1.3-1.3-2-1.8-1.1-.8-2.4-1-3.8-.9-1.2.1-2.1.5-3 1.3-1.2 1.1-1.2 3.9.7 4.8 1.2.5 2.5.9 3.7 1.2 1.6.4 3.1.8 4.5 1.8 1.2.9 1.9 2.1 2 3.6 0 1.4-.2 2.6-1 3.7-1 1.4-2.4 2.1-4 2.4-2.9.6-5.7.2-8.2-1.6-.7-.4-1.2-1.1-1.9-1.8z" fill="url(#SVGID_00000125601194600922054820000006783456557263740042_)"/><linearGradient id="SVGID_00000016052869489001971310000003123744309869056148_" gradientUnits="userSpaceOnUse" x1="221.662" y1="30.55" x2="221.662" y2="9.419" gradientTransform="matrix(1 0 0 -1 0 40.093)"><stop offset="0" stop-color="#efe4d4"/><stop offset="1" stop-color="#caac85"/></linearGradient><path d="M222.9 9.5v21.1h-2.5V9.5h2.5z" fill="url(#SVGID_00000016052869489001971310000003123744309869056148_)"/><linearGradient id="SVGID_00000123401992879813552300000011798112357931521452_" gradientUnits="userSpaceOnUse" x1="195.821" y1="30.559" x2="195.821" y2="9.419" gradientTransform="matrix(1 0 0 -1 0 40.093)"><stop offset="0" stop-color="#efe4d4"/><stop offset="1" stop-color="#caac85"/></linearGradient><path d="M197 30.7h-2.3V9.6h2.3v21.1z" fill="url(#SVGID_00000123401992879813552300000011798112357931521452_)"/></svg>